<?xml version="1.0" standalone="no"?>
<!DOCTYPE svg PUBLIC "-//W3C//DTD SVG 20010904//EN"
 "http://www.w3.org/TR/2001/REC-SVG-20010904/DTD/svg10.dtd">
<svg version="1.0" xmlns="http://www.w3.org/2000/svg"
 width="160.000000pt" height="160.000000pt" viewBox="0 0 160.000000 160.000000"
 preserveAspectRatio="xMidYMid meet">
<metadata>
Created by potrace 1.14, written by Peter Selinger 2001-2017
</metadata>
<g transform="translate(0.000000,160.000000) scale(0.100000,-0.100000)"
fill="#000000" stroke="none">
<path d="M775 1571 c-6 -6 -37 -12 -70 -15 -94 -8 -167 -16 -205 -22 -19 -4
-78 -8 -130 -9 -52 -2 -101 -4 -107 -4 -9 -1 -11 -12 -9 -33 3 -18 7 -60 11
-93 3 -33 8 -73 10 -90 3 -28 10 -102 20 -245 12 -162 20 -564 15 -765 -1 -44
-1 -87 -1 -96 1 -21 38 -31 76 -20 35 9 35 4 37 297 1 122 5 181 12 180 32 -6
222 -70 230 -77 5 -5 10 -75 12 -156 6 -409 5 -390 30 -402 15 -6 34 -7 57 0
l35 9 -5 275 c-4 265 -3 275 15 275 20 0 21 -9 8 -207 -5 -65 -3 -74 14 -83
29 -15 85 1 87 26 0 10 4 77 8 149 4 72 10 133 13 137 4 3 23 9 42 12 19 3 46
8 60 11 14 3 39 7 55 10 17 3 52 10 78 16 26 6 51 9 54 5 3 -3 6 -115 7 -248
l1 -243 25 -11 c17 -7 35 -7 57 -1 l32 10 -1 304 c-1 336 3 315 -68 327 -19 3
-50 10 -68 15 -18 5 -33 10 -35 10 -4 -1 -49 9 -122 27 -38 9 -81 18 -95 21
-13 2 -26 6 -29 9 -2 2 -5 46 -6 96 -3 125 -16 372 -20 378 -2 3 -6 46 -10 95
-9 110 -9 107 -18 123 -9 14 -89 16 -102 3z m36 -353 c1 -18 3 -62 4 -98 7
-156 7 -232 -2 -241 -5 -5 -32 -12 -59 -14 -27 -3 -56 -7 -64 -10 -8 -2 -28
-6 -45 -9 -16 -3 -46 -8 -65 -12 -19 -3 -46 -7 -60 -9 -14 -2 -44 -6 -66 -10
l-41 -6 -2 58 c-2 97 -11 266 -16 295 -6 31 3 38 48 43 75 9 127 16 202 28 44
6 99 13 123 15 41 2 42 1 43 -30z"/>
</g>
</svg>
